<svg width="18" height="20" viewBox="0 0 18 20" fill="none" xmlns="http://www.w3.org/2000/svg">
<path d="M17 17H11M11 17C11 15.8954 10.1046 15 9 15C7.8954 15 7 15.8954 7 17M11 17C11 18.1046 10.1046 19 9 19C7.8954 19 7 18.1046 7 17M7 17H1M17 10L5 10M5 10C5 8.8954 4.1046 8 3 8C1.8954 8 1 8.8954 1 10C1 11.1046 1.8954 12 3 12C4.1046 12 5 11.1046 5 10ZM13 3L1 3M13 3C13 4.1046 13.8954 5 15 5C16.1046 5 17 4.1046 17 3C17 1.8954 16.1046 1 15 1C13.8954 1 13 1.8954 13 3Z" stroke="black" stroke-linecap="round"/>
</svg>
