<svg width="96" height="30" viewBox="0 0 96 30" fill="none" xmlns="http://www.w3.org/2000/svg">
<path d="M5.42812 10.2594L8.91177 8.25026L6.96725 4.88409H25.2549L16.114 20.722L14.1695 17.35L10.6859 19.365L16.114 28.7644L32.2221 0.860001H0L5.42812 10.2594Z" fill="black"/>
<path d="M44.736 22.348C43.68 23.62 42.072 24.268 40.152 24.268C36.36 24.268 34.056 21.82 34.056 18.268C34.056 14.74 36.384 12.292 40.152 12.292C41.976 12.292 43.728 12.988 44.784 14.26L42.888 16.252C42.12 15.412 41.28 15.076 40.152 15.076C38.544 15.076 37.152 16.372 37.152 18.268C37.152 20.332 38.448 21.484 40.152 21.484C41.16 21.484 42.312 21.1 42.936 20.308L44.736 22.348Z" fill="black"/>
<path d="M59.3568 12.58L52.3728 29.14H48.9408L51.1728 23.98L46.3488 12.58H49.7568L52.1568 18.676L52.8528 20.86L53.5248 18.676L55.9249 12.58H59.3568Z" fill="black"/>
<path d="M67.2028 15.124C65.4748 15.124 64.2268 16.444 64.2268 18.244C64.2268 20.02 65.4748 21.34 67.2028 21.34C68.8828 21.34 70.0348 20.092 70.0348 18.244C70.0348 16.372 68.8828 15.124 67.2028 15.124ZM61.2268 23.86V6.268H64.2748V12.532L64.2268 13.348C64.7308 12.676 66.2668 12.292 67.3228 12.292C71.0908 12.292 73.2028 15.052 73.2028 18.244C73.2028 21.844 71.0428 24.172 67.3228 24.172C66.4108 24.172 64.9468 23.74 64.3468 23.02L64.3708 23.668V23.86H61.2268Z" fill="black"/>
<path d="M85.8911 22.42C85.0031 23.572 82.9631 24.268 81.2111 24.268C77.3951 24.268 75.2591 21.652 75.2591 18.268C75.2591 14.812 77.3711 12.292 81.0911 12.292C84.7871 12.292 86.8991 14.812 86.8991 18.268C86.8991 18.652 86.8991 18.892 86.8751 19.228H78.3791C78.5471 20.644 79.6031 21.532 81.2111 21.532C82.3631 21.532 83.4431 21.148 84.1151 20.404L85.8911 22.42ZM78.4271 17.164H83.7071C83.5631 15.892 82.5071 15.028 81.0911 15.028C79.6751 15.028 78.5471 15.892 78.4271 17.164Z" fill="black"/>
<path d="M95.3049 15.412C94.6809 15.196 94.1289 15.124 93.4809 15.124C93.0489 15.124 92.6889 15.148 92.3529 15.292V23.86H89.2569V13.084C90.1929 12.604 91.8009 12.268 93.3609 12.268C94.0329 12.268 95.2329 12.34 95.9529 12.604L95.3049 15.412Z" fill="black"/>
</svg>
